<?xml version="1.0" encoding="utf-8"?>
<!-- Generator: Adobe Illustrator 24.2.0, SVG Export Plug-In . SVG Version: 6.00 Build 0)  -->
<svg version="1.1" id="svg2" xmlns:svg="http://www.w3.org/2000/svg"
	 xmlns="http://www.w3.org/2000/svg" xmlns:xlink="http://www.w3.org/1999/xlink" x="0px" y="0px" viewBox="0 0 600 600"
	 style="enable-background:new 0 0 600 600;" xml:space="preserve">
<style type="text/css">
	.st0{fill:#FDF9D2;stroke:#D38D5F;stroke-width:1.0712;stroke-miterlimit:3.0303;}
	.st1{fill:#FBF2CB;stroke:#D38D5F;stroke-width:1.0712;stroke-miterlimit:3.0303;}
</style>
<path id="Padre_Hurtado" class="st0" d="M70.4,413.1l20.4,20.2l-7.4,4.7l-5.2-5.2l-7.6,7.8l-4-3.1l-6.6,8.1l5.2,4.3l-4,3.8l3.6,2.1
	l-7.1,16.1l-7.8,1.2l-8.8-9.5l10.2-6.6l-3.3-3.6l4.3-3.1l-5.5-6.6l-5.7-0.9l-11.2,14l-4.3-2.1l19-19.2l-11.2-14.5v-3.1l8.8-4.7
	l5.2,8.8l5.5-2.8l5.9,5L70.4,413.1L70.4,413.1z"/>
<path id="Maipú" class="st0" d="M90.7,433.1l-27.9-27l13.9-11.7l-14.4-10.3l4.9-16.2c1-15.6-5.3-43,3.1-46.8l37.3-9.9l-19.3-6.3
	l33.7-22l-8.1-14.6l0-5.2l35.1,7.2l-0.4,5.8l7.2-6.1l0.2,2.9l13.7,4.5l-2.8,15.3l-8.7,0.2l-0.2,20c-1.6-0.4-3.3,2.4-4.9,7.6
	l-6.3,16.2h22.9l7.2,5.8l-63.9,94.9C113.2,437.6,90.7,433.1,90.7,433.1z"/>
<path id="Cerrillos" class="st0" d="M169.9,277.5l-2.8,15.3l-8.7,0.2l-0.2,20c-1.6-0.4-3.3,2.4-4.9,7.6l-6.3,16.2h22.9l7.2,5.8
	L165.5,360l27.3,12.1l0.5-14.2l26.1-70.4l-0.5-5.2l-35.6,9.1L169.9,277.5z"/>
<path id="Estación_Central" class="st0" d="M157,248.8l0.8,21.5l-2-0.1l0.3,3.3l13.7,4.2l13.4,14l36.2-9.3l16.7,0.3l-0.4-9.3
	l-8.8,0.6c1.9-5.4,1-21.8,1.6-32.6l-2.1-0.6v-9.9l-17,0.8v5.4l-19.2,1.2l1,14.4c-8.2,3.4-10.2,2-13.4,1.5L157,248.8L157,248.8z"/>
<path id="Pudahuel" class="st0" d="M80.9,97.9l22.1,21l6.8,7.8l11.4,8.5l-33.8,35.2l-0.7,18.9l4.3,0.7l0.4,2.1l2.5,3.9l3.2,3.9
	l4.3,3.2l6,1.4l1.4-3.6l2.5,3.6l6,2.1l9.6,0.4l4.6,2.1l9.2,0.4l3.2-0.4l-0.4,25.3l2.8,0.6l-0.1,11.2l11,2.5l0.6,21.4l-1.8-0.1
	l-7.4,6.2l0.5-5.9l-35.8-7.5l-1.1-7.5c-1.6-6.9-8.9-2.9-13.9-3.2c1.1,6.3-4.3,8.4-8.9,11c-2.8-5.2-12.2-4.6-18.9-6.4l-1.1,5
	c-7.8,0.7-13.9-5-16.7-2.5c-2-1.6-1-5.7-6.8-4.3c-4,0.1-6.2,1.5-2.1,7.1c-3.8,7.8-8.1,4.4-12.3,2.3l-4.3-10.2l3.3-7.8l4.8-3.8
	c-3-0.7-5.1-2.8-3.4-9.9c2.1-3.2,6-5.1,1.6-12.8l5.9-4.3l-1-6.1l17.1-6l-0.2-3.3l5.3,2.1l4.1-5.2l-1.8-10.3l3.9,0.4
	c1.4-22-7-53-2.5-68.3l17.8-1.4L80.9,97.9L80.9,97.9z"/>
<path id="Lo_Prado" class="st1" d="M143.7,219.1l-0.2,15.4l2.8,0.6l-0.1,11.3l31.2,7.4c6.6,2.2,10.9-0.3,13.8-1.4l-1-14.4l-0.6-16.8
	l-19.9-2l-0.6,3.9l-9.8-4.5C159.3,218.6,143.7,219.1,143.7,219.1z"/>
<path id="Cerro_Navia" class="st0" d="M86.6,189.3l0.2-5.5l13.7,0.1l0.5,1.7l5,0.1l7.7-3.9l12.1-0.1h32.1l3.4,1.4l5-3.2h3.1l6.7,5.1
	l-7,38l-9.7-4.4l-15.5,0.5l0.1-10l-3.2,0.4l-9.2-0.4l-4.6-2.1l-9.6-0.4l-6-2.1l-2.5-3.6l-1.4,3.6l-6-1.4l-4.3-3.2l-3.2-3.9l-2.5-3.9
	l-0.4-2.1L86.6,189.3L86.6,189.3z"/>
<path id="Santiago" class="st0" d="M225.2,285.7l13.2,0.5V282h-2.8l42.8,0.9l22.3-10.3l-16.2-57.4l-48.4-13.3l0.4,3.2
	c-4.4-0.1-11.8-6.5-12.2,1.9l1.2,15.3l-16.2,0.9l0.1,8.3l17-0.8v9.9l2.1,0.6c-0.5,10.9,0.3,27.2-1.6,32.6l8.8-0.6l0.2,9.3l-10.3,0"
	/>
<path id="Renca" class="st0" d="M125.5,138.4l-4.5-3.1l-33.8,35.2l-0.6,13.4l13.7,0.1l0.5,1.7l5,0.1l7.7-3.9l12.1-0.1h32.1l3.4,1.4
	l5-3.2h3.1l0-2.6l3.7,0.2l7.1-4h12.6l10.1,7.6l6.8,7.1l8.9,5.7l17.6,7.9l0.1-2.3l-10-10.7l-2-20.1l-2-4.1l-12.1-21.9l-4.9-12.5
	l-1.7,2.9h-1.3l-0.5-2.2l-6.6,3.2l-4.1,0.1l-8.9,11.6l-3.4,0.1l-2.7-1.3l-6.7,4.7h-5.5l-0.2-1.3l-3.4-0.2l-0.3,1.4l-3.1-0.2
	l-0.3-0.7l-3.1-0.1l-0.7,1.1l-3.1-0.2l-1,1.5l-4.9-5.5l-2.3-0.1l-1.2-1.3l-1.1,1.4H132l-3.1-3.3l-0.1-3.2L125.5,138.4L125.5,138.4z"
	/>
<path id="Quinta_Normal" class="st0" d="M236.5,205.1l-0.4-3.2l-17.6-7.9l-8.9-5.7l-6.8-7.1l-10.1-7.6h-12.6l-7.1,4l-3.7-0.2l0,2.6
	l6.7,5.1l-6.3,34.1l19.9,2l0.6,16.8l19.2-1.2v-5.4l-0.1-8.3l16.2-0.9l-1.2-15.3C224.7,198.6,232.1,205,236.5,205.1L236.5,205.1z"/>
<path id="Recoleta" class="st0" d="M284.5,215.2l-21.3-5.9l1.9-22.1l-4.4-0.2l0.2-17.9h-3.2l-3.3-2.5l0.4-5.8l-2.1-2.3l1.6-0.9
	l-0.2-28.6l-0.7-0.2v-4.2l0.9-0.2l0.5-3.1l25,11.9l38.6,30.4l-0.1,5.9l-9.9,6.5l-1.6,4.2l-8.9,9.2h-3.8l-5.4,4l-1.1,7.2l-4.2,8h1.3
	L284.5,215.2z"/>
<path id="Independencia" class="st0" d="M232.7,160.2l-10.4,4.4l2,4.1l2,20.1l10,10.7l-0.1,2.3l27.1,7.4l1.9-22.1l-4.4-0.2l0.2-17.9
	h-3.2l-3.3-2.5l0.4-5.8l-2.1-2.3l-11.9-0.4L232.7,160.2L232.7,160.2z"/>
<path id="Quilicura" class="st0" d="M106.1,116.2l-3.2,2.7l6.8,7.8l15.9,11.6l3.2,0.1l0.1,3.2l3.1,3.3h7.3l1.1-1.4l1.2,1.3l2.3,0.1
	l4.9,5.5l1-1.5l3.1,0.2l0.7-1.1l3.1,0.1l0.3,0.7l3.1,0.2l0.3-1.4l3.4,0.2l0.2,1.3h5.5l6.7-4.7l2.7,1.3l3.4-0.1l8.9-11.6l4.1-0.1
	l6.6-3.2l0.5,2.2h1.3l1.7-2.9l-8.8-22.5v-2.7l15.2-0.1l-5.7-16.2v-6.6l2-1.4l-0.1-3.6l2.9-0.9c6-16.8,6.6-8.1,11.5-13.7
	c0.3-2.1-0.2-3.7-2.2-4.1v-6v-6.2h-5.4l-2.1-4.4c-0.2-1.9,0.9-1.5,2-1.1l0.9,3.1c-0.5-3.1,3.1-7.8-7.6-6.9c-2.5-2.2-2-6-8.6-5.7
	l-3.1,1.9l-4.4-0.4l-5.6-4.7l-9.1,0.2l-2.1,11.5l-27.9,7.5l23.4,30.5h-2.6l0.1,3.1h-11.5l0.1-5H149l0.1,9.6l-1.6-0.2
	c-1.5-0.8,0.2,0.7-5.7-3.4l0.2-4.4c-2.8-3-6.8-1.5-10.5-1c2.2,1.5,4.6,3.4,5.5,3.4l-7.1-0.1c-0.1,1.2-1.1,1.9-4.2,1.4l-5,13.6h-5.4
	l-0.4,11.4l-8.7,9.2L106.1,116.2L106.1,116.2L106.1,116.2z"/>
<path id="Conchalí" class="st0" d="M252.7,158.6l1.6-0.9l-0.2-28.6l-0.7-0.2v-4.2l0.9-0.2l0.5-3.1l-35.5-15.6l-7.6-1.2l-15.2,0.1
	v2.7l8.8,22.5l4.9,12.5l12.1,21.9l10.4-4.4l8.1-1.9L252.7,158.6z"/>
<path id="San_Bernardo" class="st0" d="M192.9,371.7l27.9,12.1l-9.7,27.5l-4-1.6v14.2l-7.3,15l36,15.4l15.8,3.2l-16.2,65.9l6.1,7.3
	l-0.8,1.2l2,2.4l-5.3,1.6l12.1,23l-0.8,10.5h-4l-1.6-8.9l-4,0.4l-0.8-3.6l-26.7,2.4l-1.6-4.9l-2,0.4l1.6,7.7l5.3,3.2h3.2l0.8,1.6
	l5.3,0.4l-0.8,1.6l-17,4.9l-5.7-0.4l-14.6-8.1l4.4-10.5l-4.9-25.5l-3.6-0.8l-4.4-12.9l2.4-6.1l-4.4-0.8l-2.8,2l-6.9-1.2l1.2-6.9
	l5.3-14.6l-2.4-3.6h-3.6l-1.2-4.9l-0.8-3.2l-3.6-2.4l3.2-8.1l-6.1-5.7l1.6-7.7l2.4-2.8l-0.8-5.3l6.1-6.1l2-27.9l8.5-14.6l7.3,4.4
	L192.9,371.7L192.9,371.7z"/>
<path id="El_Bosque" class="st0" d="M220.8,383.8l24.9,10.3l18.6,2.9l-12.7,60.4l-15.8-3.2l-36-15.4l7.3-15v-14.2l4,1.6L220.8,383.8
	L220.8,383.8z"/>
<path id="La_Cisterna" class="st0" d="M264.2,397l-18.6-2.9l-24.9-10.3l18.6-47l36.5,10.3L264.2,397z"/>
<path id="Lo_Espejo" class="st0" d="M193.3,357.9l-0.4,13.8l27.9,12.1l18.6-47l-33-14.1L193.3,357.9L193.3,357.9z"/>
<path id="Pedro_Aguirre_Cerda" class="st0" d="M238.4,282l22,0.6l-21,54.3l-33-14.1l13.1-35.2l-0.5-5.2l6.6,0.1l-0.3,3.3l13.2,0.5
	L238.4,282L238.4,282L238.4,282z"/>
<path id="San_Miguel" class="st0" d="M239.4,336.8l21-54.3l18,0.4l7.3,65.2l-5.9,0.1L239.4,336.8L239.4,336.8z"/>
<path id="San_Ramón" class="st0" d="M285.7,348.1l-5.9,0.1l-3.9-1.1l-11.6,50l-2.4,11.3l32.6,3.9L285.7,348.1L285.7,348.1z"/>
<path id="La_Granja" class="st0" d="M285.7,348.1l8.7,64.2l5.1,0.6l19.5-4.9l-3.6-15h5.7l-1.7-53.8h-7.2l-14,8.1L285.7,348.1
	L285.7,348.1z"/>
<path id="San_Joaquín" class="st0" d="M285.7,348.1l-7.3-65.2l22.3-10.3l2.5,6.9l3,13.9l5,12.6l4.6,26l3.3,3.3l0.2,3.9h-7.2
	l-14,8.1L285.7,348.1L285.7,348.1z"/>
<path id="La_Pintana" class="st0" d="M319,407.9l-19.5,4.9l-37.6-4.5l-10.3,49.1l-8.7,35.5l34.7,3.2l-2.7,19h3.3L277,524h22.7
	l2.5-12.8v-23.5l26.6-5.1l-0.9-8.2l-0.7-15.9l-3.6-4.9l-1.5-21.8h-1.4l-2.2-14h3.4L319,407.9L319,407.9z"/>
<path id="Providencia" class="st0" d="M314.8,172.2l-6.4,4.1l-1.6,4.2l-8.9,9.2h-3.8l-5.4,4l-1.1,7.2l-4.2,8h1.3l-0.2,6.4l6.8,24.2
	l17-5.4l0.4,2.1l3,0.2l9.6-5.1l14.8-1.3l6.8,4.7l13.8-23.3l-3.3-3.5l-23.5-21l-8.1-3l3.9-11.3L314.8,172.2L314.8,172.2z"/>
<path id="Ñuñoa" class="st0" d="M291.4,239.4l17-5.4l0.4,2.1l3,0.2l9.6-5.1l14.8-1.3l6.8,4.7l13.7-23.3l11.5,7.3l4,20.8l-1.6,13
	l-5.4,16.8l-12.1,7.5l-27.2-0.2l-22.7,2.9l-2.4-6.8L291.4,239.4L291.4,239.4z"/>
<path id="La_Reina" class="st0" d="M356.6,211.2l11.5,7.3l4,20.8l-1.6,13l12.1,5.1l20.6,0.7l11.8-0.6l10.7,3.9l2.5-9.8l57.4,3.5
	l0.3-3.6l-3.5-6.6l-5.2-3.8l-1.5-2.1l-3.8-3.4l0.3-7l-16.4-14.4l-11.5-2.5l-9.1-4.3l-19.2,2.7l-0.7-6.7l-26.9,3.5l-34.9,0.7
	L356.6,211.2L356.6,211.2z"/>
<path id="Macul" class="st0" d="M315.8,332l-4.6-26l-5-12.6l-3-14l22.7-2.9l27.2,0.2l12.1-7.5l-5.2,32.2l-11.5,22.5v9.5L315.8,332
	L315.8,332z"/>
<path id="Puente_Alto" class="st0" d="M443.6,505.7c-3.8,0.9-6.9-0.7-10.1-2.4c-5.3-4.9-8.5,4-12.5,6c-5.3-1.3-10.8-4.6-16.5-2.9
	c-4.2,3.2-8.7,7.7-14.6,4.9c-4.3-4.2-9.7,2.5-9.4,7c-4.2,0.6-9.8-0.9-12.8,4c-5,15.3-3.8,10.2-10.3,9.5c-4.9,0.9-5.9,10.8-12.5,8.5
	c-1.3-5.2-4-1.1-7.4-0.6c-5.5-1.7-9.5,4.2-15.2,2.2c-5,2.3-10,2.6-15.1,0.1c-5.5-1.6-13.2-0.9-15.1,5.6l6.8-10.5l0.7-13.1l2.5-12.8
	v-23.5l26.6-5.1l-0.9-8.2l-0.7-15.9l-3.6-4.9l-1.5-21.8l14-4.9l9.5,4.2l12.1-1.5l-0.4-6.8l37.1-7.2L380,393.9l20.5,0.4l7.6,7.2
	l5.3-5.7l1.9,4.5l5.7-0.8l4.9-1.9l2.3,0.4l0.4,25.8l-11-4.2l-2.3,18.6l-3-0.4l-0.4,16.7l5.7,7.2l1.5,9.5l10.2,4.9l4.9-6.4l40.9-2.3
	l-0.4,6.4c-1.2,0-5,0.7-3.8,3c0.7,1.5,0.9,2.7,0.4,4.9c-0.5,1.9-0.7,4.5-2.7,5.7c-2,1.2-2.7,1.6-4.9,0.8c-1.4-0.5-3.2-2.1-3.8,0.4
	c-0.6,2.6,0.8,2.5,0.8,5.3c0,3-1.7,2.7-2.3,4.9c-0.4,1.7-2,3.4-4.2,3.4c-1.7,0-4.2-0.1-4.5-1.5c-0.1-0.3-0.7-4.8-1.1-4.9
	c-1-0.2-5.1-0.3-3.8,2.3c0.7,1.4,1.1,3.1,0,5.3C444.3,504.1,444,504.9,443.6,505.7L443.6,505.7z"/>
<path id="Pirque" class="st0" d="M363.7,549.6c0.4-5-6,4.2-8.7,4.3c-5.3,1.5-10.8,2.4-15.9,4.6c-2.7,3.3-5.4,7.6-9.2,6.7
	c-4.4,4-10.6,1.6-15.8,1.7c-3.1,3.2-11.1,5.7-12.6-0.2c0.7-3.6,10.3-9.3,1.6-9.2c-5.9,0.3-11.1-3.9-11-9.8c1.9-6.5,9.6-7.2,15.1-5.6
	c5.1,2.5,10.1,2.1,15.1-0.1c5.7,2.1,9.7-3.9,15.2-2.2c3.4-0.5,6.1-4.7,7.4,0.6c6.6,2.3,7.5-7.6,12.5-8.5c6.5,0.7,5.2,5.8,10.3-9.5
	c3-4.9,8.6-3.4,12.8-4c-0.3-4.5,5-11.2,9.4-7c5.9,2.8,10.4-1.7,14.6-4.9c5.8-1.7,11.3,1.6,16.5,2.9c4-2,7.2-10.9,12.5-6
	c3.2,1.6,6.4,3.2,10.1,2.4l0.8-0.8l1.5,3l-9.1,0.4l-11.4,3.8v8.3l3.8,3.4l-13.3,2.7l-4.5,4.5v-5.3l-13.6,2.3l1.1-4.9l-11,5.3
	l0.8,13.3l-10.6,4.5l-0.8-8.7l-8.3,3.8l4.2,5.3L363.7,549.6L363.7,549.6z M468.6,487.5c-2,1.2-2.7,1.6-4.9,0.8
	c-1.4-0.5-3.2-2.1-3.8,0.4c-0.6,2.6,0.8,2.5,0.8,5.3c0.2-0.1,0.4-0.2,0.6-0.3c0.4-0.4,0.6-0.9,1.2-1.2c0.5-0.2,1-0.6,1.9-0.6
	c0.8,0,1.6,0,2.4,0c0.6,0,1.3,0,1.9-0.1c0.5-0.1,1.2-0.4,1.4-0.9c0.3-0.6,0.5-0.9,0.2-1.7c-0.2-0.9-0.3-0.8-1-1.2
	C469,487.7,468.8,487.6,468.6,487.5L468.6,487.5z M471.2,481.8c-1.6,2.4,4.3-3.5,5.6-4.2c2-1,3.7-2.4,5.4-3.7
	c1.9-1.5,3.3-3.7,5.4-4.9c1.6-1.6,4-0.3,5.7,0.3c1.8,1,4.5,0.9,5.1-1.4c1.2-1.6,1.6-3.5,1.6-5.5c0.9-3,1.8,1.7,3.1,2.1
	c1.8,1.6,4.1,1.6,5.9-0.1c1.7-2,4.4-1,6.7-1.2c2.3,0,4.7,0.5,6.8-0.8c1.4-1.4,1.8-4.8-0.1-6.1c-1.8-0.1-3.5-0.7-5.4-0.4
	c-2.1-0.4-4.2,0.9-5.5,2.5c-1.2,1.4-3.5,1.2-5,0.5c-1.9-0.8-3.4-2.4-5.4-3.1c-1.6-0.6-4-1.2-5.3,0.1c-1.7,1.8-1,3.9-1.4,5.8
	c-0.7,1.6-0.6,3.1-2.9,2c-1.3-1.2-3.1-2.9-4.7-1.2c-2.4,2.7-5.1,5.2-7.7,7.8c-1.9,1.1-4.4,0.6-4.5,3.6c-1.2,0-5,0.7-3.8,3
	C471.6,478.3,471.8,479.6,471.2,481.8z M544.4,443l-0.8-1c-1.3-1.3-2.4-2.7-3.5-4.1c-0.9-1-2.3-1.5-3.6-1.3c-1.1,0-2.5,0.2-3.1,1.3
	c-1.2,1.6-1.6,3.5-2.5,5.2c-0.9,1.4-2.5,2.7-4.3,2.3c-1.4-0.2-2.5-1.1-3.6-1.8c-1.2-0.5-2.5-0.5-3.8-0.4c-1,0.8,0.4,1.7,1,2.3
	l-0.3,2.6c3.1-2.4,5.8,3.1,9.3,1.7c3.7-0.1,5.2-4.3,8.1-5.8C539.8,445.8,541.8,443,544.4,443L544.4,443z"/>
<path id="San_José_de_Maipo" class="st0" d="M519.9,448.3l0.3-2.6c-0.6-0.5-2-1.4-1-2.3c1.3-0.1,2.6-0.2,3.8,0.4
	c1.2,0.7,2.2,1.6,3.6,1.8c1.8,0.4,3.4-0.9,4.3-2.3c0.9-1.7,1.3-3.6,2.5-5.2c0.6-1.1,2-1.3,3.1-1.3c1.3-0.2,2.7,0.3,3.6,1.3
	c1.1,1.4,2.2,2.9,3.5,4.1l0.8,1c3.1,2.2,6.4,0.9,9.6-0.2c3.1,0.6,6-0.9,8.8-2c3.1-0.4,6.7-0.7,9.5,0.8c2.9,3.7,2.7-4.2,0.1-4.1
	c-3.3-2-6.5,1.4-9.9,1.1c-1-1.4-3.7-1.6-5.8-2.6c-2.9,0.8-3.1-4.2-5-3.3c-1.3,3.6-6.5,2.7-7.3-0.7c-2.7-1.6-0.6-7.9-4.3-7.4
	c-0.8,1.9-2.5,3.8-2.6,5.8c3.5,3.6-3.3,3.2-5.4,2.7c-3,1.6-6.8,1.3-7.8-2.6c-2,0.8-2.5,4.5-5.1,5.3c1.7,1.8,1.9,5.3-1.4,7
	c-1.2,1.5-1.6,7.7-4.4,4.4c-1.1-3.4-2.8,0.2-2,1.9c-1.3,3.7-6.3,3.9-6.5-0.6c-1.2,1.8-3.7,6.5-6,2.6c-1.4-4.5-5.5,4-7.9-0.2
	c-4.6-2.4-7.3,3.1-7.7,6.9c-0.3,3.8-1.7,9.8-0.4,8.5c1.3-1.3,2.6-2.6,3.8-3.9c1.6-1.7,3.4,0,4.7,1.2c2.3,1.1,2.2-0.4,2.9-2
	c0.3-1.9-0.3-3.9,1.4-5.8c1.3-1.3,3.7-0.8,5.3-0.1c2,0.7,3.5,2.3,5.4,3.1c1.5,0.7,3.8,0.9,5-0.5c1.3-1.6,3.4-2.9,5.5-2.5
	c1.8-0.3,3.6,0.4,5.4,0.4l0.1-1.9C521.9,452.5,517.6,450.5,519.9,448.3L519.9,448.3z"/>
<path id="La_Florida" class="st0" d="M315.8,332l3.3,3.3l0.2,3.9l1.7,53.8h-5.7l3.6,15l2.9,9.9h-3.4l2.2,14h1.4l14-4.9l9.5,4.2
	l12.1-1.5l-0.4-6.8l37.1-7.2L380,393.9l20.5,0.4l7.6,7.2l5.1-5.4l5.9-5.1l-3.3-9.4l-8.1-6.1l0.6-2.1h8.7l-0.6-11.3l25.7,2.3
	l-0.4-10.5l-14.6-1.2l-0.3-15.7l4.2-5.1h-6.5l-3.6,3.6l-4.9,1.6l-27.3-0.6l-40-3.1L315.8,332L315.8,332z"/>
<path id="Peñalolén" class="st0" d="M485.6,255.2l-57.4-3.5l-2.5,9.8l-10.7-3.9l-11.8,0.6l-20.6-0.7l-12.1-5.1l-5.4,16.8
	l-5.2,32.2l-11.5,22.5l0.1,9.5l40,3.1l27.3,0.6l4.9-1.6l3.6-3.6h6.5l2.2-3.6l2.6,0.3l12.3-10.9l11.8-0.3l4.3-3.7l7.2-0.3v-3.7
	l12.9,6l7.7,0.9l11.8-10h9.5l4.6-3.7l4.3-0.6l11.8,5.2l7.5-0.3l10-5.4l6.6,0.3l-0.3-5.4l-2-4.9l-9.7-1.1l-3.2-2.6l-4.9-0.3l-6.9-8.6
	h-2.6l-2.9-2.6l-14.9-0.6l-6.9-4.9l-0.6-4l-6.3-6.9L485.6,255.2L485.6,255.2z"/>
<path id="Las_Condes" class="st0" d="M555.5,291.7l-9.7-1.1l-3.2-2.6l-4.9-0.3l-6.9-8.6h-2.6l-2.9-2.6l-14.9-0.6l-6.9-4.9l-0.6-4
	l-6.3-6.9l-11.1-4.9l0.3-3.6l-3.5-6.6l-5.2-3.8l-1.5-2.1l-3.8-3.4l0.3-7l-16.4-14.4l-11.5-2.5l-9.1-4.3l-19.2,2.7l-0.7-6.7
	l-26.9,3.5l-34.9,0.8l-23.4-20.9l-8.1-3l3.9-11.3l91.9-39.3l9.1-11.1l21.3-10.1l11.9-1.3l7.8-5.1l4.6,0.3l5.6-4.8l12.2,1.8h8.9v7.3
	l-5.8,4.1l-2.5,7.1v2.8l6.1,7.6l2,4.3l-0.5,5.6l3,1.5l1.5-0.3l10.4,6.6l17.7,3.5l3,4.6l-0.5,23.3l1.5,1.3v5.1l13.2,9.1l11.6,1.5
	l4.8,19l-1.3,6.1l5.1,9.9l1.3,18.7l-7.6,6.3l-2.5,6.8l3.5,5.1l-1,13.9h-2.3L555.5,291.7L555.5,291.7z"/>
<path id="Vitacura" class="st0" d="M318.8,153.3c-0.7,3.4,0.1,7.1-0.3,10.5l-0.1,5.9l-3.6,2.4l11,0.2l91.9-39.3l9.1-11.1l13.8-6.6
	L437,111l-27,1.9l-8.2-5.7l-10.3-9.9l-6.7-3.6h-8l-1.3-1.5l-2.9-0.4l-1.9-2.9l-3.8,0.4l-2.9,2.3l-3.3-6.5l-6.5-3.5l-2.3,5l-2.9,1.7
	l-8.4,0.6l-6.1,6.9l-5.2,5.5l4.8,4l-0.8,12.2l-2.9,2.7l0.2,7.3l0.2,0.3l-4.5,2L326,134l2.2,3.5l-0.2,5.3l-4.9,4.1L318.8,153.3
	L318.8,153.3z"/>
<path id="Lo_Barnechea" class="st0" d="M364,91.8l2.9-2.3l3.8-0.4l1.9,2.9l2.9,0.4l1.3,1.5h8l6.7,3.6l10.3,9.9l8.2,5.7l27-1.9
	l3.6,4.2l7.5-3.5l11.9-1.3l7.8-5.1l4.6,0.3l5.6-4.8l12.2,1.8h8.9l0.3,0.2l6.1-1.2l1.4,3.1l5.6-0.9l-0.2,4l1.9,2.8l13.2-11.5v-2.3
	l6.3-4l0.2-7l20.2-3.1l4.5-3.3l6.3-12.9l-45.3-28.2l-3.3-0.5l-6.8,5.9l-8.5-9.4L471.8,42l-23.3-8.7l-13.6-8l-25.1,2.6v2.8l-7.5,6.3
	l-4.2-3.3l2.1-3.5l-5.2-0.9l-0.9,3.3l-5.2-1.4l-4.2,1.9l-0.5,3.8l3.8,5.9l10.6,8.2l-3.5,1.2l0.7,4.7l-4.2,2.6l-3.5-8.5l-2.8,0.2
	l-2.3,2.3l-7.5,3.8l-0.5,6.8l2.8,3.5l-9.9,5.6l3.1,4.9l-7.3,6.3L364,91.8L364,91.8z"/>
<path id="Huechuraba" class="st0" d="M205.9,81.9v6.6l5.7,16.2l7.6,1.2l35.5,15.6l25,11.9l38.6,30.4c0.5-3.4-0.4-7.1,0.3-10.5
	l4.4-6.4l4.9-4.1l0.2-5.3l0.4,0.7l-6.5-6.5l-3,0.5l-4.4-3.5h7.6l0.3-4.1l-9.8-1.1l0.5-2.2l6.5-6.8l-7.4-0.8l-0.8,2.5h-3.3l-0.5,1.4
	l-3-0.5l-1.1,4.4l-14.2-6l1.9-14.7l-4.1-5.2l-4.9-0.3l-5.7,3.5l-4.1,9l-4.4-0.5l-2.2,4.9l-7.6-3.5l2.5-6l-4.9-0.3l3.8-10.6l-1.9-3
	l-7.6,0.3v-4.1l-9-2.2l3.3-10.9l-4.1-3.8l0.8-2.2l-6.5-3.3l-0.8,3.3h-3.8l-0.8-1.4h-2.2l0.8,2.7l-4.6,4.6h-4.4l0.5,2.7l-3.3,3.3
	h-3.8l-1.9,4.4L205.9,81.9L205.9,81.9z"/>
</svg>
